<svg xmlns="http://www.w3.org/2000/svg" xmlns:xlink="http://www.w3.org/1999/xlink" viewBox="0,0,256,256" width="80px" height="80px" fill-rule="nonzero"><g fill="none" fill-rule="nonzero" stroke="none" stroke-width="1" stroke-linecap="butt" stroke-linejoin="miter" stroke-miterlimit="10" stroke-dasharray="" stroke-dashoffset="0" font-family="none" font-weight="none" font-size="none" text-anchor="none" style="mix-blend-mode: normal"><g transform="scale(3.2,3.2)"><path d="M12,75.5c-4.136,0 -7.5,-3.364 -7.5,-7.5v-54c0,-4.136 3.364,-7.5 7.5,-7.5h54c4.136,0 7.5,3.364 7.5,7.5v54c0,4.136 -3.364,7.5 -7.5,7.5z" fill="#004f8f"></path><path d="M66,7c3.86,0 7,3.14 7,7v54c0,3.86 -3.14,7 -7,7h-54c-3.86,0 -7,-3.14 -7,-7v-54c0,-3.86 3.14,-7 7,-7h54M66,6h-54c-4.418,0 -8,3.582 -8,8v54c0,4.418 3.582,8 8,8h54c4.418,0 8,-3.582 8,-8v-54c0,-4.418 -3.582,-8 -8,-8z" fill="#66798f"></path><path d="M69.197,6.669l-18.228,19.885l-9.261,-9.262l-0.655,-0.655l-0.703,0.603l-7,6l-0.845,0.724l0.811,0.763l17,16l0.706,0.665l0.686,-0.686l22.292,-22.292v-4.414c0,-3.281 -1.977,-6.097 -4.803,-7.331z" fill="#455260"></path><path d="M25.272,62.38c0,-0.958 -0.348,-1.708 -1.044,-2.244c-0.696,-0.538 -1.92,-1.092 -3.67,-1.666c-1.75,-0.576 -3.182,-1.128 -4.294,-1.666c-3.614,-1.734 -5.422,-4.118 -5.422,-7.15c0,-1.51 0.45,-2.84 1.352,-3.996c0.902,-1.156 2.174,-2.054 3.822,-2.694c1.648,-0.642 3.5,-0.964 5.558,-0.964c2.004,0 3.804,0.35 5.394,1.048c1.592,0.698 2.826,1.694 3.708,2.984c0.882,1.292 1.324,2.31 1.324,3.968h-6.708c0,-1.11 -0.348,-1.512 -1.044,-2.124c-0.696,-0.612 -1.638,-0.916 -2.826,-0.916c-1.2,0 -2.148,0.258 -2.846,0.776c-0.696,0.52 -1.044,1.176 -1.044,1.974c0,0.7 0.384,1.334 1.15,1.898c0.766,0.568 2.114,1.156 4.044,1.762c1.928,0.604 3.514,1.258 4.752,1.956c3.016,1.698 4.522,4.038 4.522,7.02c0,2.38 -0.92,4.254 -2.758,5.614c-1.844,1.36 -4.366,2.04 -7.572,2.04c-2.26,0 -4.308,-0.398 -6.142,-1.188c-1.832,-0.792 -3.212,-1.878 -4.138,-3.258c-0.926,-1.38 -1.39,-3.758 -1.39,-5.554h6.744c0,1.46 0.388,3.33 1.158,4.02c0.772,0.694 2.03,1.04 3.766,1.04c1.11,0 1.99,-0.232 2.636,-0.702c0.646,-0.468 0.968,-1.13 0.968,-1.978zM42.798,70c-2.622,0 -4.747,-0.794 -6.366,-2.383c-1.62,-1.588 -2.432,-3.652 -2.432,-6.198v-0.45c0,-1.777 0.322,-3.341 0.971,-4.7c0.647,-1.361 1.593,-2.41 2.836,-3.154c1.238,-0.742 2.714,-1.115 4.421,-1.115c2.402,0 4.297,0.758 5.687,2.27c1.39,1.514 2.085,3.621 2.085,6.329v1.401h-11c0.19,0.972 0.733,2.404 1.375,2.958c0.64,0.558 1.605,1.042 2.625,1.042c1.682,0 3.16,-0.77 4.109,-1.971l2.434,2.921c-0.665,0.932 -1.604,1.672 -2.82,2.221c-1.215,0.554 -2.524,0.829 -3.925,0.829zM42,56c-1.557,0 -3,1.042 -3,3h6v0c0.021,-0.866 -0.406,-1.64 -0.858,-2.115c-0.451,-0.475 -1.299,-0.885 -2.142,-0.885z" fill="#ffffff"></path><g fill="#99c99e"><path d="M34,24l7,-6l10,10l22,-24l5,9l-27,27z"></path></g></g></g></svg>